<?xml version="1.0" encoding="utf-8"?><!-- Generator: Adobe Illustrator 21.0.0, SVG Export Plug-In . SVG Version: 6.00 Build 0)  --><!DOCTYPE svg PUBLIC "-//W3C//DTD SVG 1.1//EN" "http://www.w3.org/Graphics/SVG/1.1/DTD/svg11.dtd"><svg version="1.1" id="レイヤー_1" xmlns="http://www.w3.org/2000/svg" xmlns:xlink="http://www.w3.org/1999/xlink" x="0px"	 y="0px" width="879.6px" height="200px" viewBox="0 0 879.6 200" style="enable-background:new 0 0 879.6 200;"	 xml:space="preserve"><style type="text/css">	.st0{fill:#12A5CC;}	.st1{fill:#FFFFFF;}</style><g>	<path class="st0" d="M864,187.7H445c-8.6,0-15.6-7-15.6-15.6V15.6C429.4,7,436.4,0,445,0h419c8.6,0,15.6,7,15.6,15.6v156.5		C879.6,180.7,872.6,187.7,864,187.7z"/>	<g>		<path class="st0" d="M182.8,84.1c2.2-4.6,3.5-9.8,3.5-15.3s-1.3-10.7-3.5-15.3c-5.7-11.7-17.7-19.8-31.6-19.8l0,0l0,0h-38.6v123.2			h19.8v-53h3.5l39.2,53h24.7l-40-54C169.9,100.4,178.3,93.4,182.8,84.1z M132.4,84.1V53.6c0,0,1.6,0,18.8,0			c8.4,0,15.3,6.8,15.3,15.3s-6.8,15.3-15.3,15.3h-18.8V84.1z"/>		<path class="st0" d="M382.9,76.1h-19.8v6c-6.3-3.8-13.6-6-21.5-6c-22.8,0-41.3,18.5-41.3,41.3s18.5,41.3,41.3,41.3			c7.9,0,15.2-2.2,21.5-6v6c0,11.9-9.6,21.5-21.5,21.5s-21.5-9.6-21.5-21.5h-19.8c0,22.8,18.5,41.3,41.3,41.3s41.3-18.5,41.3-41.3			l0,0V76.1z M341.6,138.9c-11.9,0-21.5-9.6-21.5-21.5s9.6-21.5,21.5-21.5s21.5,9.6,21.5,21.5l0,0			C363.1,129.3,353.5,138.9,341.6,138.9z"/>		<polygon class="st0" points="73,78.9 19.8,78.9 19.8,33.1 0,33.1 0,157 19.8,157 19.8,98.7 73,98.7 73,157 92.8,157 92.8,33.1 			73,33.1 		"/>		<path class="st0" d="M242.3,74.1c-23.9,0-43.4,19.4-43.4,43.4c0,23.9,19.4,43.4,43.4,43.4c23.9,0,43.4-19.4,43.4-43.4			C285.6,93.5,266.2,74.1,242.3,74.1z M242.3,140.9c-13,0-23.5-10.5-23.5-23.5s10.5-23.5,23.5-23.5s23.5,10.5,23.5,23.5			S255.3,140.9,242.3,140.9z"/>	</g>	<g>		<g>			<path class="st1" d="M448.6,105.5V88.2h43.3V62.4h-38.8V45.1h88.4v17.3h-32.4v25.8h37.1v17.3h-36.9c-1.1,12.1-3.8,21.5-8.2,28.2				c-4.4,6.7-9.5,12.3-15.2,16.7c-5.8,4.4-11.6,7.6-17.5,9.8c-5.9,2.1-11.1,3.7-15.7,4.8v-17.2c5.8-1.6,11.3-3.9,16.4-6.7				c5.2-2.9,9.9-6.8,14.2-11.8c4.3-5,7.2-12.9,8.8-23.8H448.6z"/>			<path class="st1" d="M568.3,94.9V80.3l14.8-0.5l-2.4-20.7h14.4l2.4,20.5l56.8-1.8v17.3c-1.9,8.1-5.2,15.3-9.7,21.6				s-9.1,11.1-13.7,14.6c-4.6,3.5-8.7,6-12.4,7.5v-16.3c10.6-6.8,17.6-16.6,21-29.4l-40.3,1.1l8.8,72.7h-14.4l-8.8-72.5L568.3,94.9z				"/>			<path class="st1" d="M676.1,110V92.5h70.6V110H676.1z"/>			<path class="st1" d="M774.7,166.2V39.4h18V83h67.1v17.5h-67.1v65.6L774.7,166.2L774.7,166.2z"/>		</g>	</g></g></svg>